####
#
# OBJ File Generated by Meshlab
#
####
# Object chassis.obj
#
# Vertices: 142
# Faces: 276
#
####
mtllib ./chassis.obj.mtl

vn 0.935197 -0.176847 -0.306809
v 1.037118 1.429214 -0.770012
vn 0.369976 0.921625 0.117152
v 1.037108 2.585106 1.555700
vn 0.685723 0.343104 0.641922
v 1.037108 2.003678 1.649704
vn 0.942497 -0.285532 -0.173699
v 1.037118 1.627664 -0.923202
vn 0.306613 0.925966 -0.220400
v 1.037113 2.595553 -0.766529
vn 0.198859 -0.979296 -0.037874
v 1.037118 1.683369 -1.187802
vn 0.571320 -0.370028 0.732579
v 1.037118 1.286467 1.538294
vn 0.189988 -0.963944 0.186324
v 1.037118 0.945270 1.388586
vn 0.804922 -0.431782 0.407018
v 1.037118 1.457066 1.635780
vn 0.141173 -0.984987 0.099350
v 1.037118 1.571959 1.799412
vn 0.137445 0.969690 0.202018
v 1.037108 1.979308 1.879493
vn 0.276516 -0.957596 -0.080923
v 1.037118 1.575440 2.321653
vn 0.159932 0.947243 0.277763
v 1.037108 1.826117 2.558407
vn 0.147427 -0.895983 -0.418902
v 1.037118 1.509290 2.540995
vn 0.079684 0.486421 0.870083
v 1.037118 1.707743 2.805596
vn 0.070614 -0.291848 0.953854
v 1.037118 1.383952 2.805596
vn 0.095831 -0.411899 -0.906176
v 1.037118 1.390915 2.638481
vn 0.032113 -0.915447 0.401155
v 1.037118 1.241206 2.662851
vn 0.567072 -0.795052 0.215224
v 1.037113 1.652035 -1.553371
vn 0.221022 0.684219 -0.694977
v 1.037113 2.045460 -1.894568
vn 0.310908 -0.690305 0.653310
v 1.037113 1.582406 -1.685673
vn 0.045792 -0.245025 -0.968435
v 1.037113 1.470994 -1.873681
vn 0.018932 -0.742134 0.669984
v 1.037113 1.467512 -1.748343
vn 0.183710 -0.982976 -0.003082
v 1.037118 0.945271 -0.226883
vn 0.075628 -0.406643 -0.910451
v 1.037118 1.028829 -0.616821
vn 0.020773 -0.945682 -0.324430
v 1.037118 0.948752 -0.529782
vn -0.911043 -0.172291 -0.374589
v -1.249063 1.429212 -0.770012
vn -0.883311 0.220969 0.413442
v -1.249073 2.003676 1.649704
vn -0.565967 0.746870 0.349094
v -1.249073 2.585104 1.555700
vn -0.815679 -0.494241 -0.300656
v -1.249068 1.627662 -0.923202
vn -0.253021 0.963421 -0.088323
v -1.249073 2.595551 -0.766529
vn -0.376034 -0.925914 -0.035807
v -1.249068 1.683367 -1.187807
vn -0.492352 -0.367195 0.789150
v -1.249063 1.286465 1.538289
vn -0.360936 -0.915642 0.176988
v -1.249063 0.945268 1.388581
vn -0.806628 -0.365335 0.464631
v -1.249063 1.457064 1.635775
vn -0.192858 -0.946203 0.259817
v -1.249063 1.571956 1.799412
vn -0.191040 0.966497 0.171426
v -1.249073 1.979306 1.879488
vn -0.142398 -0.986294 -0.083349
v -1.249063 1.575438 2.321653
vn -0.080747 0.956461 0.280467
v -1.249073 1.826115 2.558401
vn -0.169410 -0.795599 -0.581655
v -1.249063 1.509287 2.540995
vn -0.157874 0.481854 0.861912
v -1.249063 1.707741 2.805596
vn -0.189073 -0.406340 -0.893946
v -1.249063 1.390913 2.638476
vn -0.035374 -0.292395 0.955643
v -1.249063 1.383950 2.805596
vn -0.043888 -0.773215 -0.632623
v -1.249063 1.241204 2.662851
vn -0.457534 -0.878935 0.134671
v -1.249068 1.652032 -1.553376
vn -0.112592 0.697109 -0.708069
v -1.249068 2.045458 -1.894573
vn -0.161415 -0.716772 0.678367
v -1.249068 1.582404 -1.685673
vn -0.091295 -0.244262 -0.965402
v -1.249068 1.470991 -1.873681
vn -0.019290 -0.945308 0.325608
v -1.249068 1.467509 -1.748343
vn -0.116671 -0.993170 -0.000979
v -1.249063 0.945268 -0.226883
vn -0.112016 -0.501029 -0.858151
v -1.249063 1.028826 -0.616821
vn -0.015001 -0.992090 -0.124633
v -1.249063 0.948750 -0.529782
vn -0.599657 0.799479 -0.035282
v -0.154934 1.040449 -1.194885
vn 0.141294 0.989339 -0.035281
v -0.112652 1.057962 -1.194885
vn -0.000000 -0.000000 -1.000000
v -0.112653 0.998167 -1.229420
vn -0.989339 0.141293 -0.035281
v -0.172448 0.998167 -1.194885
vn -0.799482 -0.599653 -0.035281
v -0.154935 0.955886 -1.194885
vn -0.141293 -0.989339 -0.035281
v -0.112654 0.938371 -1.194885
vn 0.599658 -0.799479 -0.035281
v -0.070372 0.955885 -1.194885
vn 0.989339 -0.141293 -0.035281
v -0.052858 0.998166 -1.194885
vn 0.799482 0.599653 -0.035281
v -0.070371 1.040448 -1.194885
vn -0.778689 0.624025 -0.065091
v -0.158423 1.043938 0.008970
vn -0.109361 0.991869 -0.065091
v -0.112652 1.062896 0.008970
vn -0.991868 -0.109363 -0.065092
v -0.177382 0.998168 0.008970
vn -0.624032 -0.778683 -0.065091
v -0.158424 0.952397 0.008970
vn 0.109369 -0.991868 -0.065091
v -0.112654 0.933438 0.008970
vn 0.778686 -0.624028 -0.065091
v -0.066883 0.952396 0.008970
vn 0.991868 0.109362 -0.065091
v -0.047924 0.998166 0.008970
vn 0.624028 0.778686 -0.065092
v -0.066882 1.043937 0.008970
vn -0.263719 0.247794 -0.932229
v -0.200287 1.085803 0.068174
vn -0.011259 0.361695 -0.932228
v -0.112652 1.122102 0.068174
vn -0.361695 -0.011260 -0.932229
v -0.236588 0.998168 0.068174
vn -0.247794 -0.263719 -0.932229
v -0.200289 0.910533 0.068174
vn 0.011260 -0.361695 -0.932229
v -0.112654 0.874232 0.068174
vn 0.263720 -0.247795 -0.932228
v -0.025019 0.910531 0.068174
vn 0.361693 0.011259 -0.932229
v 0.011282 0.998166 0.068174
vn 0.247794 0.263719 -0.932229
v -0.025017 1.085801 0.068174
vn -0.601028 0.787944 -0.133824
v -0.263085 1.148600 0.078041
vn 0.132171 0.982152 -0.133824
v -0.112652 1.210910 0.078041
vn -0.982152 0.132169 -0.133823
v -0.325396 0.998168 0.078041
vn -0.787944 -0.601028 -0.133824
v -0.263086 0.847735 0.078041
vn -0.132172 -0.982152 -0.133825
v -0.112654 0.785424 0.078041
vn 0.601026 -0.787946 -0.133826
v 0.037778 0.847734 0.078041
vn 0.982151 -0.132173 -0.133825
v 0.100091 0.998166 0.078041
vn 0.787943 0.601030 -0.133824
v 0.037780 1.148598 0.078041
vn -0.791746 0.599640 0.116489
v -0.263084 1.148600 0.630629
vn -0.135836 0.983859 0.116487
v -0.112652 1.210910 0.630629
vn -0.983859 -0.135836 0.116487
v -0.325396 0.998168 0.630628
vn -0.599643 -0.791744 0.116488
v -0.263086 0.847736 0.630628
vn 0.135834 -0.983860 0.116486
v -0.112655 0.785423 0.630628
vn 0.791742 -0.599646 0.116486
v 0.037778 0.847733 0.630628
vn 0.983859 0.135838 0.116489
v 0.100091 0.998165 0.630628
vn 0.599642 0.791745 0.116488
v 0.037780 1.148598 0.630629
vn -0.407369 0.537890 0.738055
v -0.210753 1.096269 0.630629
vn 0.092294 0.668399 0.738055
v -0.112651 1.136903 0.630629
vn -0.668402 0.092292 0.738052
v -0.251389 0.998169 0.630628
vn -0.537900 -0.407368 0.738048
v -0.210755 0.900067 0.630628
vn -0.092296 -0.668401 0.738052
v -0.112655 0.859430 0.630628
vn 0.407367 -0.537893 0.738054
v -0.014553 0.900064 0.630628
vn 0.668401 -0.092297 0.738052
v 0.026083 0.998165 0.630628
vn 0.537896 0.407366 0.738052
v -0.014551 1.096267 0.630629
vn -0.699745 0.529973 0.479046
v -0.210753 1.096269 0.709569
vn -0.120050 0.869541 0.479047
v -0.112651 1.136903 0.709569
vn -0.869546 -0.120048 0.479039
v -0.251389 0.998169 0.709569
vn -0.529977 -0.699744 0.479043
v -0.210756 0.900067 0.709569
vn 0.120047 -0.869542 0.479046
v -0.112655 0.859431 0.709569
vn 0.699748 -0.529975 0.479040
v -0.014553 0.900064 0.709569
vn 0.869544 0.120049 0.479042
v 0.026083 0.998165 0.709569
vn 0.529974 0.699743 0.479048
v -0.014551 1.096267 0.709569
vn -0.605936 0.791704 0.077762
v -0.175865 1.061382 0.709569
vn 0.131366 0.988279 0.077762
v -0.112651 1.087565 0.709569
vn -0.988279 0.131366 0.077762
v -0.202051 0.998169 0.709569
vn -0.791708 -0.605931 0.077762
v -0.175868 0.934954 0.709569
vn -0.131360 -0.988280 0.077761
v -0.112655 0.908769 0.709569
vn 0.605931 -0.791708 0.077762
v -0.049440 0.934951 0.709569
vn 0.988281 -0.131355 0.077762
v -0.023255 0.998165 0.709569
vn 0.791708 0.605931 0.077762
v -0.049438 1.061379 0.709569
vn -0.798983 0.600230 0.036748
v -0.172376 1.057893 1.528584
vn -0.140544 0.989392 0.036749
v -0.112651 1.082631 1.528584
vn -0.989393 -0.140539 0.036748
v -0.197117 0.998169 1.528584
vn -0.600226 -0.798986 0.036749
v -0.172380 0.938443 1.528584
vn 0.140538 -0.989393 0.036748
v -0.112655 0.913703 1.528584
vn 0.798986 -0.600226 0.036749
v -0.052929 0.938440 1.528584
vn 0.989392 0.140545 0.036748
v -0.028189 0.998164 1.528584
vn 0.600233 0.798981 0.036748
v -0.052926 1.057890 1.528584
vn -0.605151 0.793615 0.062978
v -0.151444 1.036961 1.533519
vn 0.133262 0.989078 0.062979
v -0.112651 1.053028 1.533519
vn -0.989078 0.133262 0.062979
v -0.167514 0.998169 1.533519
vn -0.793615 -0.605152 0.062978
v -0.151447 0.959376 1.533519
vn -0.133270 -0.989077 0.062977
v -0.112655 0.943305 1.533519
vn 0.605156 -0.793612 0.062978
v -0.073862 0.959373 1.533519
vn 0.989078 -0.133262 0.062978
v -0.057792 0.998164 1.533519
vn 0.793615 0.605152 0.062979
v -0.073859 1.036958 1.533519
vn -0.795379 0.602441 0.066609
v -0.151444 1.036961 2.076239
vn -0.136425 0.988409 0.066610
v -0.112651 1.053027 2.076239
vn -0.988407 -0.136433 0.066609
v -0.167514 0.998169 2.076239
vn -0.602448 -0.795374 0.066608
v -0.151447 0.959376 2.076239
vn 0.136433 -0.988408 0.066608
v -0.112655 0.943305 2.076239
vn 0.795379 -0.602441 0.066608
v -0.073862 0.959372 2.076239
vn 0.988408 0.136432 0.066608
v -0.057792 0.998164 2.076239
vn 0.602437 0.795382 0.066610
v -0.073859 1.036957 2.076239
vn 0.000000 0.000000 1.000000
v -0.112653 0.998166 2.076239
# 142 vertices, 0 vertices normals


usemtl material_0
vt 0.772500 1.665630
vt 0.312900 1.895620
vt 0.294320 1.779930
f 1/1/1 2/2/2 3/3/3
vt 0.802770 1.705110
f 1/1/1 4/4/4 2/2/2
vt 0.771810 1.897700
f 4/4/4 5/5/5 2/2/2
vt 0.855060 1.716200
f 4/4/4 6/6/6 5/5/5
vt 0.345920 1.569330
vt 0.316340 1.637220
f 8/7/8 1/1/1 7/8/7
vt 0.297070 1.671170
f 7/8/7 1/1/1 9/9/9
f 9/9/9 1/1/1 3/3/3
vt 0.264740 1.694030
f 10/10/10 9/9/9 3/3/3
vt 0.248910 1.775080
f 10/10/10 3/3/3 11/11/11
vt 0.161530 1.694720
f 12/12/12 10/10/10 11/11/11
vt 0.114750 1.744600
f 12/12/12 11/11/11 13/13/13
vt 0.118190 1.681560
f 14/14/14 12/12/12 13/13/13
vt 0.065900 1.721050
vt 0.065900 1.656620
vt 0.098920 1.658010
f 15/15/15 16/16/16 17/17/17
vt 0.094100 1.628220
f 16/16/16 18/18/18 17/17/17
f 15/15/15 17/17/17 14/14/14
f 15/15/15 14/14/14 13/13/13
vt 0.927310 1.709960
f 6/6/6 19/19/19 5/5/5
vt 0.994730 1.788240
f 19/19/19 20/20/20 5/5/5
vt 0.953450 1.696110
f 19/19/19 21/21/21 20/20/20
vt 0.990600 1.673940
f 21/21/21 22/22/22 20/20/20
vt 0.965840 1.673250
f 21/21/21 23/23/23 22/22/22
vt 0.665170 1.569330
f 24/24/24 1/1/1 8/7/8
vt 0.742230 1.585960
f 25/25/25 1/1/1 24/24/24
vt 0.725030 1.570030
f 24/24/24 26/26/26 25/25/25
f 27/1/27 28/3/28 29/2/29
f 27/1/27 29/2/29 30/4/30
f 30/4/30 29/2/29 31/5/31
f 30/4/30 31/5/31 32/6/32
f 33/8/33 27/1/27 34/7/34
f 35/9/35 27/1/27 33/8/33
f 35/9/35 28/3/28 27/1/27
f 36/10/36 28/3/28 35/9/35
f 36/10/36 37/11/37 28/3/28
f 38/12/38 37/11/37 36/10/36
f 38/12/38 39/13/39 37/11/37
f 40/14/40 39/13/39 38/12/38
f 41/15/41 42/17/42 43/16/43
vt 0.094110 1.628220
f 43/16/43 42/17/42 44/27/44
f 41/15/41 40/14/40 42/17/42
f 41/15/41 39/13/39 40/14/40
f 32/6/32 31/5/31 45/19/45
f 45/19/45 31/5/31 46/20/46
f 45/19/45 46/20/46 47/21/47
vt 0.990610 1.673940
f 47/21/47 46/20/46 48/28/48
f 47/21/47 48/28/48 49/23/49
f 34/7/34 27/1/27 50/24/50
f 50/24/50 27/1/27 51/25/51
f 50/24/50 51/25/51 52/26/52
vt 0.343630 0.088440
vt 0.006640 0.019000
vt 0.343630 0.019000
f 15/29/15 43/30/43 16/31/16
vt 0.006640 0.088440
f 15/29/15 41/32/41 43/30/43
vt 0.716300 0.034510
vt 0.364810 0.096310
vt 0.364810 0.034510
f 15/33/15 39/34/39 41/35/41
vt 0.716300 0.096310
f 15/33/15 13/36/13 39/34/39
vt 0.716300 0.266040
f 11/37/11 39/34/39 13/36/13
vt 0.364810 0.266040
f 11/37/11 37/38/37 39/34/39
vt 0.716300 0.323480
vt 0.364810 0.323490
f 3/39/3 28/40/28 37/38/37
f 3/39/3 37/38/37 11/37/11
vt 0.714660 1.356650
vt 0.364350 1.505560
vt 0.364350 1.356650
f 3/41/3 29/42/29 28/43/28
vt 0.714660 1.505560
f 2/44/2 29/42/29 3/41/3
vt 0.241360 0.467140
vt -0.212090 0.619180
vt -0.212090 0.467140
f 2/45/2 31/46/31 29/47/29
vt 0.241360 0.619180
f 5/48/5 31/46/31 2/45/2
vt 0.740150 0.335340
vt 0.990020 0.031480
vt 0.990020 0.335340
f 5/49/5 46/50/46 31/51/31
vt 0.740150 0.031480
f 20/52/20 46/50/46 5/49/5
vt 0.008340 1.122210
vt 0.348070 1.187630
vt 0.008340 1.187630
f 22/53/22 46/54/46 20/55/20
vt 0.348070 1.122210
f 22/53/22 48/56/48 46/54/46
vt 0.646510 1.192250
vt 0.446520 1.278750
vt 0.446520 1.192250
f 18/57/18 43/58/43 44/59/44
vt 0.646510 1.278750
f 16/60/16 43/58/43 18/57/18
f 23/23/23 49/23/49 22/22/22
f 22/22/22 49/23/49 48/28/48
vt 0.613270 0.258410
vt 0.472030 0.258410
vt 0.472030 0.163890
f 8/61/8 34/62/34 50/63/50
vt 0.613270 0.163890
f 8/61/8 50/63/50 24/64/24
vt 0.572460 0.226720
vt 0.477460 0.162280
vt 0.572460 0.162280
f 24/65/24 52/66/52 26/67/26
vt 0.477460 0.226720
f 24/65/24 50/68/50 52/66/52
vt 0.478420 1.182930
vt 0.478420 1.166530
vt 0.605240 1.166530
f 33/69/33 34/70/34 8/71/8
vt 0.478420 1.193610
vt 0.605240 1.182930
f 35/72/35 33/69/33 7/73/7
f 33/69/33 8/71/8 7/73/7
vt 0.605240 1.193610
f 35/72/35 7/73/7 9/74/9
vt 0.478420 1.211540
f 36/75/36 35/72/35 9/74/9
vt 0.605240 1.211540
f 36/75/36 9/74/9 10/76/10
vt 0.230880 0.308730
f 40/77/40 38/77/38 14/77/14
f 38/77/38 12/77/12 14/77/14
vt 0.478420 1.268760
vt 0.605240 1.268760
f 38/78/38 10/76/10 12/79/12
f 38/78/38 36/75/36 10/76/10
f 44/77/44 17/77/17 18/77/18
f 44/77/44 42/77/42 17/77/17
f 42/77/42 40/77/40 17/77/17
f 40/77/40 14/77/14 17/77/17
vt 0.479330 0.231140
vt 0.479330 0.200040
vt 0.609330 0.200040
f 30/80/30 32/81/32 6/82/6
vt 0.479330 0.157080
f 32/81/32 45/83/45 6/82/6
vt 0.609330 0.157080
f 45/83/45 19/84/19 6/82/6
vt 0.609330 0.231140
f 30/80/30 6/82/6 4/85/4
f 52/77/52 51/77/51 26/77/26
f 51/77/51 25/77/25 26/77/26
vt 0.479330 0.267150
vt 0.479330 0.249150
vt 0.609330 0.267150
f 51/86/51 27/87/27 25/88/25
vt 0.609330 0.249150
f 27/87/27 1/89/1 25/88/25
f 30/80/30 1/89/1 27/87/27
f 4/85/4 1/89/1 30/80/30
f 47/77/47 49/77/49 23/77/23
f 45/77/45 47/77/47 19/77/19
f 47/77/47 21/77/21 19/77/19
f 47/77/47 23/77/23 21/77/21
vt 0.502710 0.421460
vt 0.505140 0.421460
vt 0.505140 0.420860
f 53/90/53 54/91/54 55/92/55
vt 0.501700 0.421460
f 56/93/56 53/90/53 55/92/55
f 57/90/57 56/93/56 55/92/55
f 58/91/58 57/90/57 55/92/55
vt 0.507580 0.421460
f 59/94/59 58/91/58 55/92/55
vt 0.508590 0.421460
f 60/95/60 59/94/59 55/92/55
f 61/94/61 60/95/60 55/92/55
f 54/91/54 61/94/61 55/92/55
vt 0.502510 0.442490
vt 0.505140 0.442490
f 53/90/53 62/96/62 63/97/63
f 53/90/53 63/97/63 54/91/54
f 62/96/62 53/90/53 56/93/56
vt 0.501420 0.442490
f 62/96/62 56/93/56 64/98/64
f 57/90/57 65/96/65 64/98/64
f 57/90/57 64/98/64 56/93/56
f 58/91/58 66/97/66 65/96/65
f 58/91/58 65/96/65 57/90/57
vt 0.507780 0.442490
f 59/94/59 67/99/67 66/97/66
f 59/94/59 66/97/66 58/91/58
vt 0.508870 0.442490
f 60/95/60 68/100/68 67/99/67
f 60/95/60 67/99/67 59/94/59
f 61/94/61 69/99/69 68/100/68
f 61/94/61 68/100/68 60/95/60
f 54/91/54 63/97/63 69/99/69
f 54/91/54 69/99/69 61/94/61
vt 0.500100 0.443520
vt 0.505140 0.443520
f 62/96/62 70/101/70 71/102/71
f 62/96/62 71/102/71 63/97/63
vt 0.498010 0.443520
f 64/98/64 72/103/72 70/101/70
f 64/98/64 70/101/70 62/96/62
f 65/96/65 73/101/73 72/103/72
f 65/96/65 72/103/72 64/98/64
f 66/97/66 74/102/74 73/101/73
f 66/97/66 73/101/73 65/96/65
vt 0.510190 0.443520
f 67/99/67 75/104/75 74/102/74
f 67/99/67 74/102/74 66/97/66
vt 0.512280 0.443520
f 68/100/68 76/105/76 75/104/75
f 68/100/68 75/104/75 67/99/67
f 69/99/69 77/104/77 76/105/76
f 69/99/69 76/105/76 68/100/68
f 63/97/63 71/102/71 77/104/77
f 63/97/63 77/104/77 69/99/69
vt 0.496480 0.443700
vt 0.505140 0.443700
f 70/101/70 78/106/78 79/107/79
f 70/101/70 79/107/79 71/102/71
vt 0.492890 0.443700
f 72/103/72 80/108/80 78/106/78
f 72/103/72 78/106/78 70/101/70
f 73/101/73 81/106/81 80/108/80
f 73/101/73 80/108/80 72/103/72
f 74/102/74 82/107/82 81/106/81
f 74/102/74 81/106/81 73/101/73
vt 0.513810 0.443700
f 75/104/75 83/109/83 82/107/82
f 75/104/75 82/107/82 74/102/74
vt 0.517390 0.443700
f 76/105/76 84/110/84 83/109/83
f 76/105/76 83/109/83 75/104/75
f 77/104/77 85/109/85 84/110/84
f 77/104/77 84/110/84 76/105/76
f 71/102/71 79/107/79 85/109/85
f 71/102/71 85/109/85 77/104/77
vt 0.496480 0.453350
vt 0.505140 0.453350
f 78/106/78 86/111/86 87/112/87
f 78/106/78 87/112/87 79/107/79
vt 0.492890 0.453350
f 80/108/80 88/113/88 86/111/86
f 80/108/80 86/111/86 78/106/78
f 81/106/81 89/111/89 88/113/88
f 81/106/81 88/113/88 80/108/80
f 82/107/82 90/112/90 89/111/89
f 82/107/82 89/111/89 81/106/81
vt 0.513810 0.453350
f 83/109/83 91/114/91 90/112/90
f 83/109/83 90/112/90 82/107/82
vt 0.517390 0.453350
f 84/110/84 92/115/92 91/114/91
f 84/110/84 91/114/91 83/109/83
f 85/109/85 93/114/93 92/115/92
f 85/109/85 92/115/92 84/110/84
f 79/107/79 87/112/87 93/114/93
f 79/107/79 93/114/93 85/109/85
vt 0.499500 0.453350
f 86/111/86 94/116/94 95/112/95
f 86/111/86 95/112/95 87/112/87
vt 0.497160 0.453350
f 88/113/88 96/117/96 94/116/94
f 88/113/88 94/116/94 86/111/86
f 89/111/89 97/116/97 96/117/96
f 89/111/89 96/117/96 88/113/88
f 90/112/90 98/112/98 97/116/97
f 90/112/90 97/116/97 89/111/89
vt 0.510790 0.453350
f 91/114/91 99/118/99 98/112/98
f 91/114/91 98/112/98 90/112/90
vt 0.513130 0.453350
f 92/115/92 100/119/100 99/118/99
f 92/115/92 99/118/99 91/114/91
f 93/114/93 101/118/101 100/119/100
f 93/114/93 100/119/100 92/115/92
f 87/112/87 95/112/95 101/118/101
f 87/112/87 101/118/101 93/114/93
vt 0.499500 0.454730
vt 0.505140 0.454730
f 94/116/94 102/120/102 103/121/103
f 94/116/94 103/121/103 95/112/95
vt 0.497160 0.454730
f 96/117/96 104/122/104 102/120/102
f 96/117/96 102/120/102 94/116/94
f 97/116/97 105/120/105 104/122/104
f 97/116/97 104/122/104 96/117/96
f 98/112/98 106/121/106 105/120/105
f 98/112/98 105/120/105 97/116/97
vt 0.510790 0.454730
f 99/118/99 107/123/107 106/121/106
f 99/118/99 106/121/106 98/112/98
vt 0.513130 0.454730
f 100/119/100 108/124/108 107/123/107
f 100/119/100 107/123/107 99/118/99
f 101/118/101 109/123/109 108/124/108
f 101/118/101 108/124/108 100/119/100
f 95/112/95 103/121/103 109/123/109
f 95/112/95 109/123/109 101/118/101
vt 0.501500 0.454730
f 102/120/102 110/125/110 111/121/111
f 102/120/102 111/121/111 103/121/103
vt 0.500000 0.454730
f 104/122/104 112/126/112 110/125/110
f 104/122/104 110/125/110 102/120/102
f 105/120/105 113/125/113 112/126/112
f 105/120/105 112/126/112 104/122/104
f 106/121/106 114/121/114 113/125/113
f 106/121/106 113/125/113 105/120/105
vt 0.508780 0.454730
f 107/123/107 115/127/115 114/121/114
f 107/123/107 114/121/114 106/121/106
vt 0.510290 0.454730
f 108/124/108 116/128/116 115/127/115
f 108/124/108 115/127/115 107/123/107
f 109/123/109 117/127/117 116/128/116
f 109/123/109 116/128/116 108/124/108
f 103/121/103 111/121/111 117/127/117
f 103/121/103 117/127/117 109/123/109
vt 0.501710 0.469040
vt 0.505140 0.469040
f 110/125/110 118/129/118 119/130/119
f 110/125/110 119/130/119 111/121/111
vt 0.500280 0.469040
f 112/126/112 120/131/120 118/129/118
f 112/126/112 118/129/118 110/125/110
vt 0.501700 0.469040
f 113/125/113 121/132/121 120/131/120
f 113/125/113 120/131/120 112/126/112
f 114/121/114 122/130/122 121/132/121
f 114/121/114 121/132/121 113/125/113
vt 0.508580 0.469040
f 115/127/115 123/133/123 122/130/122
f 115/127/115 122/130/122 114/121/114
vt 0.510010 0.469040
f 116/128/116 124/134/124 123/133/123
f 116/128/116 123/133/123 115/127/115
f 117/127/117 125/133/125 124/134/124
f 117/127/117 124/134/124 116/128/116
f 111/121/111 119/130/119 125/133/125
f 111/121/111 125/133/125 117/127/117
vt 0.502910 0.469120
vt 0.505140 0.469120
f 118/129/118 126/135/126 127/136/127
f 118/129/118 127/136/127 119/130/119
vt 0.501990 0.469120
f 120/131/120 128/137/128 126/135/126
f 120/131/120 126/135/126 118/129/118
f 121/132/121 129/135/129 128/137/128
f 121/132/121 128/137/128 120/131/120
f 122/130/122 130/136/130 129/135/129
f 122/130/122 129/135/129 121/132/121
vt 0.507380 0.469120
f 123/133/123 131/138/131 130/136/130
f 123/133/123 130/136/130 122/130/122
vt 0.508300 0.469120
f 124/134/124 132/139/132 131/138/131
f 124/134/124 131/138/131 123/133/123
f 125/133/125 133/138/133 132/139/132
f 125/133/125 132/139/132 124/134/124
f 119/130/119 127/136/127 133/138/133
f 119/130/119 133/138/133 125/133/125
vt 0.502910 0.478610
vt 0.505140 0.478610
f 126/135/126 134/140/134 135/141/135
f 126/135/126 135/141/135 127/136/127
vt 0.501990 0.478610
f 128/137/128 136/142/136 134/140/134
f 128/137/128 134/140/134 126/135/126
f 129/135/129 137/140/137 136/142/136
f 129/135/129 136/142/136 128/137/128
f 130/136/130 138/141/138 137/140/137
f 130/136/130 137/140/137 129/135/129
vt 0.507380 0.478610
f 131/138/131 139/143/139 138/141/138
f 131/138/131 138/141/138 130/136/130
vt 0.508300 0.478610
f 132/139/132 140/144/140 139/143/139
f 132/139/132 139/143/139 131/138/131
f 133/138/133 141/143/141 140/144/140
f 133/138/133 140/144/140 132/139/132
f 127/136/127 135/141/135 141/143/141
f 127/136/127 141/143/141 133/138/133
f 135/141/135 134/140/134 142/141/142
f 134/140/134 136/142/136 142/141/142
f 136/142/136 137/140/137 142/141/142
f 137/140/137 138/141/138 142/141/142
f 138/141/138 139/143/139 142/141/142
f 139/143/139 140/144/140 142/141/142
f 140/144/140 141/143/141 142/141/142
f 141/143/141 135/141/135 142/141/142
# 276 faces, 144 coords texture

# End of File