#Vertex Positions
v -1.0 1.0 1.0
v -1.0 -1.0 1.0
v 1.0 -1.0 1.0
v 1.0 1.0 1.0
v -1.0 1.0 -1.0
v 1.0 1.0 -1.0
v -1.0 -1.0 -1.0
v 1.0 -1.0 -1.0
#Texture Coords
vt 0.0 1.0
vt 0.0 0.0
vt 1.0 0.0
vt 1.0 1.0

#Normals
vn 0.0 0.0 1.0
vn 1.0 0.0 0.0
vn 0.0 0.0 -1.0
vn -1.0 0.0 0.0
vn 0.0 1.0 0.0
vn 0.0 -1.0 0.0

#Face 1
f 1/1/1 2/2/1 3/3/1
f 1/1/1 3/3/1 4/4/1 

#Face 2
f 4/1/2 3/2/2 8/3/2
f 4/1/2 8/3/2 6/4/2 

#Face 3
f 6/1/3 8/2/3 7/3/3
f 6/1/3 7/3/3 5/4/3 

#Face 4
f 5/1/4 7/2/4 2/3/4
f 5/1/4 2/3/4 1/4/4 

#Face 5
f 6/1/5 5/2/5 1/3/5
f 6/1/5 1/3/5 4/4/5 

#Face 6
f 3/1/6 2/2/6 7/3/6
f 3/1/6 7/3/6 8/4/6
