####
#
# OBJ File Generated by Meshlab
#
####
# Object turret.obj
#
# Vertices: 90
# Faces: 172
#
####
mtllib ./turret.obj.mtl

vn 0.088525 0.990926 -0.101137
v -0.114816 3.083730 3.186310
vn 0.418933 0.902369 0.101120
v 0.013054 3.049454 4.229244
vn 0.572189 0.813865 -0.101106
v 0.013054 3.049454 3.186310
vn -0.088510 0.990929 0.101117
v -0.114816 3.083730 4.229244
vn -0.567632 -0.807524 0.160307
v -0.050751 2.938884 4.229244
vn -0.087835 -0.983143 0.160357
v -0.114816 2.956055 4.229244
vn -0.415559 -0.895324 -0.160331
v -0.050751 2.938884 3.186310
vn 0.087835 -0.983151 -0.160310
v -0.114816 2.956055 3.186310
vn 0.813862 0.572192 0.101117
v 0.106714 2.955794 4.229244
vn 0.902369 0.418933 -0.101120
v 0.106714 2.955795 3.186310
vn -0.895574 -0.415011 0.160356
v -0.003856 2.891989 4.229244
vn -0.807673 -0.567405 -0.160359
v -0.003856 2.891989 3.186310
vn 0.990923 0.088525 0.101168
v 0.140990 2.827924 4.229244
vn 0.990926 -0.088510 -0.101148
v 0.140990 2.827924 3.186310
vn -0.983173 0.087505 0.160355
v 0.013250 2.827924 4.229244
vn -0.983166 -0.087505 -0.160401
v 0.013250 2.827924 3.186310
vn 0.902399 -0.418867 0.101124
v 0.106714 2.699988 4.229244
vn 0.813804 -0.572269 -0.101151
v 0.106714 2.699988 3.186310
vn -0.807666 0.567400 0.160419
v -0.003856 2.763858 4.229244
vn -0.895575 0.415009 -0.160355
v -0.003856 2.763858 3.186310
vn 0.571964 -0.814023 0.101115
v 0.013054 2.606394 4.229244
vn 0.418796 -0.902432 -0.101124
v 0.013054 2.606394 3.186310
vn -0.415556 0.895326 0.160326
v -0.050751 2.716963 4.229244
vn -0.567629 0.807526 -0.160308
v -0.050751 2.716964 3.186310
vn 0.088528 -0.990926 0.101138
v -0.114816 2.572117 4.229244
vn -0.088513 -0.990929 -0.101118
v -0.114816 2.572117 3.186310
vn 0.087835 0.983151 0.160311
v -0.114816 2.699793 4.229244
vn -0.087830 0.983144 -0.160357
v -0.114816 2.699793 3.186310
vn -0.418731 -0.902462 0.101128
v -0.242752 2.606394 4.229244
vn -0.572042 -0.813964 -0.101150
v -0.242752 2.606394 3.186310
vn 0.567623 0.807519 0.160370
v -0.178882 2.716963 4.229244
vn 0.415550 0.895329 -0.160324
v -0.178882 2.716964 3.186310
vn -0.813963 -0.572043 0.101150
v -0.336346 2.699988 4.229244
vn -0.902462 -0.418731 -0.101128
v -0.336346 2.699988 3.186310
vn 0.895328 0.415552 0.160324
v -0.225776 2.763858 4.229244
vn 0.807521 0.567620 -0.160369
v -0.225776 2.763858 3.186310
vn -0.990929 -0.088513 0.101118
v -0.370623 2.827924 4.229244
vn -0.990926 0.088527 -0.101138
v -0.370623 2.827924 3.186310
vn 0.983143 -0.087835 0.160358
v -0.242947 2.827924 4.229244
vn 0.983151 0.087835 -0.160312
v -0.242947 2.827924 3.186310
vn -0.902432 0.418796 0.101124
v -0.336346 2.955794 4.229244
vn -0.814022 0.571965 -0.101116
v -0.336346 2.955795 3.186310
vn 0.807528 -0.567626 0.160309
v -0.225776 2.891989 4.229244
vn 0.895326 -0.415556 -0.160326
v -0.225776 2.891989 3.186310
vn -0.572267 0.813806 0.101141
v -0.242752 3.049454 4.229244
vn -0.418865 0.902400 -0.101124
v -0.242752 3.049454 3.186310
vn 0.415557 -0.895325 0.160330
v -0.178882 2.938884 4.229244
vn 0.567629 -0.807514 -0.160368
v -0.178882 2.938884 3.186310
vn 0.000000 0.000000 -1.000000
v -0.123272 2.827924 0.523528
vn 0.817411 0.574596 -0.040963
v 0.024241 2.913063 0.523528
vn 0.995193 0.088954 -0.040966
v 0.047071 2.827924 0.523528
vn 0.420504 0.906366 -0.040947
v -0.038068 2.975372 0.523528
vn -0.088927 0.995196 -0.040955
v -0.123272 2.998202 0.523528
vn -0.574597 0.817412 -0.040950
v -0.208411 2.975372 0.523528
vn -0.906278 0.420694 -0.040945
v -0.270720 2.913063 0.523528
vn -0.995194 -0.088950 -0.040950
v -0.293549 2.827924 0.523528
vn -0.817581 -0.574356 -0.040946
v -0.270720 2.742785 0.523528
vn -0.420906 -0.906179 -0.040962
v -0.208411 2.680411 0.523528
vn 0.088909 -0.995197 -0.040961
v -0.123272 2.657582 0.523528
vn 0.574813 -0.817258 -0.040972
v -0.038068 2.680411 0.523528
vn 0.906319 -0.420604 -0.040962
v 0.024241 2.742785 0.523528
vn 0.906274 0.420701 0.040958
v 0.024241 2.913063 3.282311
vn 0.995193 -0.088954 0.040966
v 0.047071 2.827924 3.282311
vn 0.574474 0.817497 0.040962
v -0.038068 2.975372 3.282311
vn 0.088909 0.995198 0.040945
v -0.123272 2.998201 3.282311
vn -0.420697 0.906277 0.040945
v -0.208411 2.975372 3.282311
vn -0.817413 0.574594 0.040949
v -0.270720 2.913063 3.282311
vn -0.995194 0.088950 0.040950
v -0.293549 2.827924 3.282311
vn -0.906322 -0.420598 0.040949
v -0.270720 2.742785 3.282311
vn -0.574935 -0.817173 0.040959
v -0.208411 2.680411 3.282311
vn -0.088927 -0.995195 0.040971
v -0.123272 2.657581 3.282311
vn 0.420712 -0.906269 0.040964
v -0.038068 2.680411 3.282311
vn 0.817578 -0.574359 0.040960
v 0.024241 2.742785 3.282311
vn 0.000000 0.000000 1.000000
v -0.123272 2.827924 3.282311
vn -0.045789 -0.086923 0.995162
v -0.665535 2.641889 1.282321
vn -0.238569 -0.970691 0.029055
v -0.734954 2.609185 1.187634
vn 0.618806 -0.783572 0.055624
v 0.507700 2.609185 1.187634
vn 0.233605 0.042946 0.971383
v 0.438281 2.641889 1.282321
vn -0.558800 -0.827800 -0.049896
v -0.734954 2.609185 -0.140831
vn 0.248101 -0.968293 -0.029230
v 0.507700 2.609185 -0.140831
vn -0.355418 0.104807 -0.928813
v -0.660863 2.644109 -0.408580
vn 0.130473 -0.126489 -0.983350
v 0.433570 2.644109 -0.408580
vn -0.205274 0.702929 0.680995
v -0.524905 3.066620 1.217924
vn 0.089961 0.345628 0.934049
v 0.297652 3.066620 1.217924
vn 0.380963 0.922641 0.060007
v 0.349395 3.090992 1.018388
vn -0.446018 0.894823 0.018946
v -0.576649 3.090992 1.018388
vn 0.445836 0.894886 -0.020235
v 0.349395 3.090992 0.028415
vn -0.413121 0.908608 -0.061347
v -0.576649 3.090992 0.028415
vn 0.263892 0.790357 -0.552898
v 0.294148 3.064945 -0.171121
vn -0.072107 0.609231 -0.789708
v -0.521401 3.064945 -0.171121
# 90 vertices, 0 vertices normals


usemtl material_0
vt 0.586300 0.549200
vt 0.612100 0.552400
vt 0.586300 0.552400
f 1/1/1 2/2/2 3/3/3
vt 0.612100 0.549200
f 1/1/1 4/4/4 2/2/2
vt 0.638000 0.552400
f 4/4/4 5/5/5 2/2/2
vt 0.638000 0.549200
f 4/4/4 6/6/6 5/5/5
vt 0.663900 0.552400
f 6/6/6 7/7/7 5/5/5
vt 0.663900 0.549200
f 6/6/6 8/8/8 7/7/7
vt 0.689800 0.552400
f 8/8/8 3/9/3 7/7/7
vt 0.689800 0.549200
f 8/8/8 1/10/1 3/9/3
vt 0.612100 0.555500
vt 0.586300 0.555500
f 3/3/3 9/11/9 10/12/10
f 3/3/3 2/2/2 9/11/9
vt 0.638000 0.555500
f 2/2/2 11/13/11 9/11/9
f 2/2/2 5/5/5 11/13/11
vt 0.663900 0.555500
f 5/5/5 12/14/12 11/13/11
f 5/5/5 7/7/7 12/14/12
vt 0.689800 0.555500
f 7/7/7 10/15/10 12/14/12
f 7/7/7 3/9/3 10/15/10
vt 0.612100 0.558700
vt 0.586300 0.558700
f 10/12/10 13/16/13 14/17/14
f 10/12/10 9/11/9 13/16/13
vt 0.638000 0.558700
f 9/11/9 15/18/15 13/16/13
f 9/11/9 11/13/11 15/18/15
vt 0.663900 0.558700
f 11/13/11 16/19/16 15/18/15
f 11/13/11 12/14/12 16/19/16
vt 0.689800 0.558700
f 12/14/12 14/20/14 16/19/16
f 12/14/12 10/15/10 14/20/14
vt 0.612100 0.561900
vt 0.586300 0.561900
f 14/17/14 17/21/17 18/22/18
f 14/17/14 13/16/13 17/21/17
vt 0.638000 0.561900
f 13/16/13 19/23/19 17/21/17
f 13/16/13 15/18/15 19/23/19
vt 0.663900 0.561900
f 15/18/15 20/24/20 19/23/19
f 15/18/15 16/19/16 20/24/20
vt 0.689800 0.561900
f 16/19/16 18/25/18 20/24/20
f 16/19/16 14/20/14 18/25/18
vt 0.612100 0.565000
vt 0.586300 0.565000
f 18/22/18 21/26/21 22/27/22
f 18/22/18 17/21/17 21/26/21
vt 0.638000 0.565000
f 17/21/17 23/28/23 21/26/21
f 17/21/17 19/23/19 23/28/23
vt 0.663900 0.565000
f 19/23/19 24/29/24 23/28/23
f 19/23/19 20/24/20 24/29/24
vt 0.689800 0.565000
f 20/24/20 22/30/22 24/29/24
f 20/24/20 18/25/18 22/30/22
vt 0.612100 0.568200
vt 0.586300 0.568200
f 22/27/22 25/31/25 26/32/26
f 22/27/22 21/26/21 25/31/25
vt 0.638000 0.568200
f 21/26/21 27/33/27 25/31/25
f 21/26/21 23/28/23 27/33/27
vt 0.663900 0.568200
f 23/28/23 28/34/28 27/33/27
f 23/28/23 24/29/24 28/34/28
vt 0.689800 0.568200
f 24/29/24 26/35/26 28/34/28
f 24/29/24 22/30/22 26/35/26
vt 0.612100 0.571400
vt 0.586300 0.571400
f 26/32/26 29/36/29 30/37/30
f 26/32/26 25/31/25 29/36/29
vt 0.638000 0.571400
f 25/31/25 31/38/31 29/36/29
f 25/31/25 27/33/27 31/38/31
vt 0.663900 0.571400
f 27/33/27 32/39/32 31/38/31
f 27/33/27 28/34/28 32/39/32
vt 0.689800 0.571400
f 28/34/28 30/40/30 32/39/32
f 28/34/28 26/35/26 30/40/30
vt 0.612100 0.574600
vt 0.586300 0.574600
f 30/37/30 33/41/33 34/42/34
f 30/37/30 29/36/29 33/41/33
vt 0.638000 0.574600
f 29/36/29 35/43/35 33/41/33
f 29/36/29 31/38/31 35/43/35
vt 0.663900 0.574600
f 31/38/31 36/44/36 35/43/35
f 31/38/31 32/39/32 36/44/36
vt 0.689800 0.574600
f 32/39/32 34/45/34 36/44/36
f 32/39/32 30/40/30 34/45/34
vt 0.612100 0.577700
vt 0.586300 0.577700
f 34/42/34 37/46/37 38/47/38
f 34/42/34 33/41/33 37/46/37
vt 0.638000 0.577700
f 33/41/33 39/48/39 37/46/37
f 33/41/33 35/43/35 39/48/39
vt 0.663900 0.577700
f 35/43/35 40/49/40 39/48/39
f 35/43/35 36/44/36 40/49/40
vt 0.689800 0.577700
f 36/44/36 38/50/38 40/49/40
f 36/44/36 34/45/34 38/50/38
vt 0.612100 0.580900
vt 0.586300 0.580900
f 38/47/38 41/51/41 42/52/42
f 38/47/38 37/46/37 41/51/41
vt 0.638000 0.580900
f 37/46/37 43/53/43 41/51/41
f 37/46/37 39/48/39 43/53/43
vt 0.663900 0.580900
f 39/48/39 44/54/44 43/53/43
f 39/48/39 40/49/40 44/54/44
vt 0.689800 0.580900
f 40/49/40 42/55/42 44/54/44
f 40/49/40 38/50/38 42/55/42
vt 0.612100 0.584100
vt 0.586300 0.584100
f 42/52/42 45/56/45 46/57/46
f 42/52/42 41/51/41 45/56/45
vt 0.638000 0.584100
f 41/51/41 47/58/47 45/56/45
f 41/51/41 43/53/43 47/58/47
vt 0.663900 0.584100
f 43/53/43 48/59/48 47/58/47
f 43/53/43 44/54/44 48/59/48
vt 0.689800 0.584100
f 44/54/44 46/60/46 48/59/48
f 44/54/44 42/55/42 46/60/46
vt 0.612100 0.587200
vt 0.586300 0.587200
f 4/61/4 1/62/1 46/57/46
f 46/57/46 45/56/45 4/61/4
vt 0.638000 0.587200
f 45/56/45 6/63/6 4/61/4
f 45/56/45 47/58/47 6/63/6
vt 0.663900 0.587200
f 47/58/47 8/64/8 6/63/6
f 47/58/47 48/59/48 8/64/8
vt 0.689800 0.587200
f 48/59/48 1/65/1 8/64/8
f 46/60/46 1/65/1 48/59/48
vt 0.806200 0.571600
vt 0.806200 0.586900
vt 0.806200 0.583100
f 49/66/49 50/67/50 51/68/51
vt 0.806200 0.590700
f 49/66/49 52/69/52 50/67/50
vt 0.806200 0.548800
vt 0.806200 0.544900
f 49/66/49 53/70/53 52/71/52
vt 0.806200 0.552600
f 49/66/49 54/72/54 53/70/53
vt 0.806200 0.556400
f 49/66/49 55/73/55 54/72/54
vt 0.806200 0.560200
f 49/66/49 56/74/56 55/73/55
vt 0.806200 0.564000
f 49/66/49 57/75/57 56/74/56
vt 0.806200 0.567800
f 49/66/49 58/76/58 57/75/57
f 49/66/49 59/66/59 58/76/58
vt 0.806200 0.575400
f 49/66/49 60/77/60 59/66/59
vt 0.806200 0.579300
f 49/66/49 61/78/61 60/77/60
f 49/66/49 51/68/51 61/78/61
vt 0.571700 0.586900
vt 0.571700 0.583100
f 51/68/51 62/79/62 63/80/63
f 51/68/51 50/67/50 62/79/62
vt 0.571700 0.590700
f 50/67/50 64/81/64 62/79/62
f 50/67/50 52/69/52 64/81/64
vt 0.571700 0.548800
vt 0.571700 0.544900
f 52/71/52 65/82/65 64/83/64
f 52/71/52 53/70/53 65/82/65
vt 0.571700 0.552600
f 53/70/53 66/84/66 65/82/65
f 53/70/53 54/72/54 66/84/66
vt 0.571700 0.556400
f 54/72/54 67/85/67 66/84/66
f 54/72/54 55/73/55 67/85/67
vt 0.571700 0.560200
f 55/73/55 68/86/68 67/85/67
f 55/73/55 56/74/56 68/86/68
vt 0.571700 0.564000
f 56/74/56 69/87/69 68/86/68
f 56/74/56 57/75/57 69/87/69
vt 0.571700 0.567800
f 57/75/57 70/88/70 69/87/69
f 57/75/57 58/76/58 70/88/70
vt 0.571700 0.571600
f 58/76/58 71/89/71 70/88/70
f 58/76/58 59/66/59 71/89/71
vt 0.571700 0.575400
f 59/66/59 72/90/72 71/89/71
f 59/66/59 60/77/60 72/90/72
vt 0.571700 0.579300
f 60/77/60 73/91/73 72/90/72
f 60/77/60 61/78/61 73/91/73
f 61/78/61 63/80/63 73/91/73
f 61/78/61 51/68/51 63/80/63
f 74/89/74 63/80/63 62/79/62
f 74/89/74 62/79/62 64/81/64
f 74/89/74 64/83/64 65/82/65
f 74/89/74 65/82/65 66/84/66
f 74/89/74 66/84/66 67/85/67
f 74/89/74 67/85/67 68/86/68
f 74/89/74 68/86/68 69/87/69
f 74/89/74 69/87/69 70/88/70
f 74/89/74 70/88/70 71/89/71
f 74/89/74 71/89/71 72/90/72
f 74/89/74 72/90/72 73/91/73
f 74/89/74 73/91/73 63/80/63
vt 0.577800 0.269800
vt 0.571300 0.274700
vt 0.571300 0.185600
f 75/92/75 76/93/76 77/94/77
vt 0.577800 0.190600
f 78/95/78 75/92/75 77/94/77
vt 0.479500 0.274700
vt 0.479500 0.185600
f 76/93/76 79/96/79 80/97/80
f 80/97/80 77/94/77 76/93/76
vt 0.461100 0.269400
vt 0.461100 0.190900
f 79/96/79 81/98/81 82/99/82
f 82/99/82 80/97/80 79/96/79
vt 0.029100 0.142800
vt 0.151600 0.142800
vt 0.159300 0.164600
f 83/100/83 84/101/84 85/102/85
vt 0.021400 0.164600
f 85/102/85 86/103/86 83/100/83
vt 0.159300 0.272900
f 86/103/86 85/102/85 87/104/87
vt 0.021400 0.272900
f 87/104/87 88/105/88 86/103/86
vt 0.151100 0.294800
f 88/105/88 87/104/87 89/106/89
vt 0.029600 0.294800
f 89/106/89 90/107/90 88/105/88
vt 0.208200 0.159300
vt 0.369000 0.159300
vt 0.348500 0.203300
f 75/108/75 78/109/78 84/110/84
vt 0.228700 0.203300
f 83/111/83 75/108/75 84/110/84
vt 0.363600 0.154700
vt 0.236500 0.149700
vt 0.238500 0.208100
f 78/112/78 77/113/77 85/114/85
vt 0.356000 0.203100
f 85/114/85 84/115/84 78/112/78
vt 0.197300 0.259600
vt 0.404900 0.259600
vt 0.378500 0.313900
f 77/116/77 80/117/80 87/118/87
vt 0.223700 0.313900
f 87/118/87 85/119/85 77/116/77
vt 0.234200 0.148600
vt 0.360200 0.157900
vt 0.354600 0.204600
f 80/120/80 82/121/82 89/122/89
vt 0.236200 0.207000
f 89/122/89 87/123/87 80/120/80
vt 0.216100 0.157600
vt 0.368600 0.157600
vt 0.349200 0.204600
f 82/124/82 81/125/81 90/126/90
vt 0.235500 0.204600
f 90/126/90 89/127/89 82/124/82
vt 0.361000 0.160200
vt 0.235000 0.150800
vt 0.237000 0.209200
f 81/128/81 79/129/79 88/130/88
vt 0.355500 0.206900
f 88/130/88 90/131/90 81/128/81
vt 0.200000 0.258700
vt 0.404700 0.258700
vt 0.378600 0.311100
f 79/132/79 76/133/76 86/134/86
vt 0.226100 0.311100
f 86/134/86 88/135/88 79/132/79
vt 0.234600 0.150000
vt 0.361700 0.155000
vt 0.354100 0.203400
f 76/136/76 75/137/75 83/138/83
vt 0.236600 0.208400
f 83/138/83 86/139/86 76/136/76
# 172 faces, 139 coords texture

# End of File